<?xml version="1.0" encoding="UTF-8"?>
<!-- Generator: Adobe Illustrator 25.0.1, SVG Export Plug-In . SVG Version: 6.00 Build 0)  -->
<svg version="1.1" id="Layer_1" xmlns="http://www.w3.org/2000/svg" xmlns:xlink="http://www.w3.org/1999/xlink" x="0px" y="0px" viewBox="0 0 222.86 65" style="enable-background:new 0 0 222.86 65;" xml:space="preserve">
<style type="text/css">
	.st0{fill:#E2A72E;}
	.st1{fill:#1C75BC;}
	.st2{fill:#272727;}
	.st3{fill:#62BDDD;}
	.st4{fill:#FEFEFE;}
	.st5{fill:#FFFFFF;}
</style>
<g>
	<path class="st0" d="M112.1,28.84c-0.32,4.4-1.94,7.85-4.87,10.38C104.3,41.74,100.45,43,95.66,43c-5.24,0-9.36-1.76-12.36-5.29   c-3-3.53-4.5-8.36-4.5-14.52v-2.5c0-3.93,0.69-7.39,2.08-10.38c1.38-2.99,3.36-5.29,5.93-6.89c2.57-1.6,5.56-2.4,8.96-2.4   c4.71,0,8.51,1.26,11.39,3.79c2.88,2.52,4.54,6.07,4.99,10.63h-8.42c-0.21-2.64-0.94-4.55-2.2-5.74c-1.26-1.19-3.18-1.78-5.76-1.78   c-2.81,0-4.9,1.01-6.3,3.02c-1.39,2.01-2.11,5.13-2.15,9.36v3.09c0,4.41,0.67,7.64,2.01,9.68c1.34,2.04,3.45,3.06,6.33,3.06   c2.6,0,4.54-0.59,5.82-1.78c1.28-1.19,2.01-3.02,2.2-5.51H112.1z"/>
	<path class="st0" d="M151.17,22.95c0,4.02-0.71,7.55-2.13,10.58c-1.42,3.03-3.46,5.37-6.1,7.01c-2.65,1.65-5.68,2.47-9.1,2.47   c-3.38,0-6.41-0.81-9.06-2.44c-2.66-1.63-4.71-3.95-6.17-6.97c-1.46-3.02-2.2-6.49-2.22-10.42v-2.02c0-4.02,0.72-7.56,2.17-10.62   c1.45-3.06,3.5-5.4,6.14-7.04c2.65-1.64,5.67-2.45,9.07-2.45c3.4,0,6.43,0.82,9.07,2.45c2.65,1.64,4.69,3.98,6.14,7.04   c1.45,3.06,2.17,6.59,2.17,10.59V22.95z M142.65,21.09c0-4.28-0.77-7.54-2.3-9.76c-1.53-2.23-3.72-3.34-6.56-3.34   c-2.82,0-5,1.1-6.54,3.3c-1.53,2.2-2.31,5.42-2.33,9.66v1.99c0,4.17,0.77,7.41,2.3,9.71c1.53,2.3,3.74,3.45,6.62,3.45   c2.82,0,4.99-1.11,6.51-3.32c1.51-2.22,2.28-5.45,2.3-9.69V21.09z"/>
	<path class="st0" d="M172.41,27.49h-6.7v14.95h-8.42V1.6h15.18c4.82,0,8.55,1.08,11.16,3.23c2.62,2.15,3.93,5.19,3.93,9.12   c0,2.79-0.6,5.11-1.81,6.97c-1.21,1.86-3.03,3.34-5.48,4.45l8.84,16.69v0.39h-9.03L172.41,27.49z M165.7,20.67h6.79   c2.11,0,3.75-0.54,4.91-1.61c1.16-1.08,1.74-2.56,1.74-4.45c0-1.93-0.55-3.44-1.64-4.54c-1.09-1.1-2.77-1.66-5.04-1.66h-6.76V20.67   z"/>
	<path class="st0" d="M218.53,24.68h-16.16v11h18.96v6.76h-27.38V1.6h27.32v6.82h-18.91v9.73h16.16V24.68z"/>
</g>
<g>
	<path class="st1" d="M82.18,48.96l4.81,12.01l4.81-12.01h2.52v14.72h-1.94v-5.73l0.18-6.19l-4.83,11.92h-1.49l-4.82-11.89   l0.19,6.16v5.73h-1.94V48.96H82.18z"/>
	<path class="st1" d="M106.06,59.83h-6.17l-1.38,3.85h-2l5.62-14.72h1.7l5.63,14.72h-1.99L106.06,59.83z M100.48,58.24h5l-2.51-6.88   L100.48,58.24z"/>
	<path class="st1" d="M116.83,57.73h-3.46v5.95h-1.95V48.96h4.87c1.66,0,2.93,0.38,3.83,1.13c0.89,0.75,1.34,1.85,1.34,3.3   c0,0.92-0.25,1.72-0.74,2.4c-0.5,0.68-1.18,1.19-2.07,1.53l3.46,6.25v0.12h-2.08L116.83,57.73z M113.38,56.14h2.98   c0.96,0,1.73-0.25,2.3-0.75c0.57-0.5,0.85-1.17,0.85-2.01c0-0.91-0.27-1.61-0.81-2.1c-0.54-0.49-1.33-0.73-2.35-0.74h-2.97V56.14z"/>
	<path class="st1" d="M127.92,56.84l-1.8,1.87v4.97h-1.94V48.96h1.94v7.28l6.54-7.28h2.35l-5.79,6.5l6.25,8.22h-2.33L127.92,56.84z"/>
	<path class="st1" d="M145.48,56.88h-6.38v5.22h7.41v1.59h-9.35V48.96h9.25v1.59h-7.31v4.74h6.38V56.88z"/>
	<path class="st1" d="M159.3,50.55h-4.73v13.13h-1.93V50.55h-4.72v-1.59h11.38V50.55z"/>
	<path class="st1" d="M163.42,57.92v5.76h-1.94V48.96h5.43c1.61,0,2.87,0.41,3.79,1.23c0.91,0.82,1.37,1.91,1.37,3.27   c0,1.43-0.45,2.53-1.34,3.3c-0.89,0.77-2.17,1.16-3.84,1.16H163.42z M163.42,56.33h3.49c1.04,0,1.83-0.24,2.39-0.73   c0.55-0.49,0.83-1.2,0.83-2.12c0-0.88-0.28-1.58-0.83-2.11c-0.55-0.53-1.31-0.8-2.27-0.82h-3.6V56.33z"/>
	<path class="st1" d="M176.49,62.09h6.98v1.59h-8.93V48.96h1.95V62.09z"/>
	<path class="st1" d="M194,59.83h-6.17l-1.38,3.85h-2l5.62-14.72h1.7l5.63,14.72h-1.99L194,59.83z M188.42,58.24h5l-2.51-6.88   L188.42,58.24z"/>
	<path class="st1" d="M210.09,59.01c-0.18,1.56-0.76,2.76-1.72,3.6c-0.97,0.85-2.25,1.27-3.86,1.27c-1.74,0-3.13-0.62-4.18-1.87   c-1.05-1.25-1.57-2.91-1.57-5v-1.42c0-1.37,0.24-2.57,0.73-3.61c0.49-1.04,1.18-1.83,2.08-2.39c0.9-0.56,1.93-0.83,3.11-0.83   c1.56,0,2.82,0.44,3.76,1.31c0.94,0.87,1.49,2.08,1.65,3.62h-1.95c-0.17-1.18-0.53-2.03-1.1-2.56c-0.56-0.53-1.35-0.79-2.36-0.79   c-1.24,0-2.21,0.46-2.92,1.38c-0.7,0.92-1.06,2.22-1.06,3.91v1.43c0,1.6,0.33,2.87,1,3.81c0.67,0.94,1.6,1.42,2.8,1.42   c1.08,0,1.91-0.24,2.48-0.73s0.96-1.34,1.15-2.55H210.09z"/>
	<path class="st1" d="M221.06,56.88h-6.38v5.22h7.41v1.59h-9.35V48.96h9.25v1.59h-7.31v4.74h6.38V56.88z"/>
</g>
<g>
	<path class="st1" d="M33.76,51.15c0.1,0,0.21,0,0.31-0.01C33.96,51.15,33.86,51.15,33.76,51.15   C33.76,51.15,33.76,51.15,33.76,51.15z"/>
	<path class="st1" d="M33.39,54.72c7.48,1.65,14.71-2.19,17.75-8.77H48.9c-2,3.63-5.6,6.39-10.11,7.04   c-5.9,0.86-11.48-2.12-14.2-7.04h-2.21C24.4,50.57,28.14,53.57,33.39,54.72z"/>
	<path class="st1" d="M40.43,58.73c-9.8,1.77-19.12-3.74-22.35-12.78H0.96v17.34h71.59V45.95H55.41   C53.1,52.33,47.58,57.44,40.43,58.73z"/>
	<path class="st1" d="M24.63,23.58H0.96v16.9h16C16.55,33.92,19.46,27.58,24.63,23.58z"/>
	<path class="st1" d="M55.88,34.08c0.6,2.14,0.8,4.3,0.67,6.4h16v-16.9H48.88C52.29,26.18,54.65,29.67,55.88,34.08z"/>
	<path class="st1" d="M32.27,23.91c-2.32,0.93-4.58,1.99-6.38,3.79c-3.69,3.67-5.43,7.96-4.96,12.77h1.99   c-0.2-2.27,0.16-4.47,1.03-6.62c0.18-0.44,0.41-0.56,0.87-0.56c0.61,0,1.21,0,1.82,0c-0.01-0.14-0.02-0.28-0.02-0.42   c0-2.84,2.31-5.15,5.15-5.15c2.84,0,5.15,2.31,5.15,5.15c0,0.14-0.01,0.28-0.02,0.43c3.92,0,7.85,0.01,11.77-0.01   c0.45,0,0.68,0.12,0.87,0.56c0.93,2.18,1.24,4.44,1.04,6.62h2c0.51-6.56-3.18-12.93-9.32-15.69c-0.71-0.32-1.43-0.64-2.15-0.93   c-0.17-0.07-0.28-0.15-0.34-0.28H32.7C32.63,23.72,32.49,23.83,32.27,23.91z"/>
	<path class="st1" d="M28.83,8.1c0-0.46-0.1-0.62-0.57-0.57c-0.47,0.05-0.95,0.02-1.42,0.01c-1.11-0.03-1.97-0.89-1.98-1.96   C24.85,4.5,25.7,3.6,26.81,3.58c1.34-0.02,2.68-0.02,4.03,0c1.13,0.02,1.95,0.88,1.95,2.05c0.01,2.93,0,5.86,0,8.8   c0,1.23,0,2.46,0,3.69h2.14c-0.07-0.23-0.1-0.46-0.1-0.71c0-1.39,1.13-2.52,2.52-2.52c1.39,0,2.52,1.13,2.52,2.52   c0,0.25-0.04,0.49-0.1,0.71h0.95c0-4.19,0-8.37,0.01-12.56c0-1.11,0.85-1.96,1.96-1.97c1.32-0.02,2.64-0.02,3.96,0   c1.14,0.01,2.01,0.91,2,2.01c-0.02,1.08-0.88,1.92-1.99,1.95c-0.52,0.01-1.03,0.01-1.55,0c-0.3-0.01-0.43,0.04-0.43,0.39   c0.01,3.39,0.01,6.79,0,10.18h27.87V0.83H0.96v17.28h27.87C28.82,14.77,28.82,11.44,28.83,8.1z M35.83,8.98   c0.84,0,1.51,0.68,1.51,1.51s-0.68,1.51-1.51,1.51c-0.84,0-1.51-0.68-1.51-1.51S34.99,8.98,35.83,8.98z"/>
	<path class="st2" d="M40.43,58.73c7.14-1.29,12.67-6.39,14.98-12.78h-4.26c-3.04,6.58-10.27,10.42-17.75,8.77   c-5.25-1.16-9-4.15-11.01-8.77h-4.3C21.31,54.99,30.63,60.5,40.43,58.73z"/>
	<path class="st2" d="M41.11,23.86c0.72,0.29,1.44,0.61,2.15,0.93c6.14,2.76,9.83,9.13,9.32,15.69h3.97c0.13-2.1-0.08-4.26-0.67-6.4   c-1.23-4.41-3.59-7.9-7-10.49h-8.11C40.83,23.71,40.93,23.79,41.11,23.86z"/>
	<path class="st2" d="M16.95,40.48h3.98c-0.48-4.81,1.26-9.1,4.96-12.77c1.81-1.8,4.06-2.86,6.38-3.79   c0.22-0.09,0.35-0.19,0.43-0.33h-8.07C19.46,27.58,16.55,33.92,16.95,40.48z"/>
	<rect x="40.4" y="3.05" class="st1" width="10.49" height="4.82"/>
	<rect x="40.72" y="3.58" class="st2" width="3.96" height="14.53"/>
	<rect x="23.25" y="3.05" class="st1" width="10.49" height="4.82"/>
	<rect x="28.83" y="3.58" class="st2" width="3.99" height="14.53"/>
	<path class="st3" d="M38.79,52.99c4.51-0.66,8.1-3.41,10.11-7.04H35.97c0.54,0.55,0.88,1.31,0.87,2.15c0,1.59-1.22,2.89-2.78,3.04   c-0.1,0.01-0.2,0.01-0.31,0.01c0,0,0,0,0,0h0c-1.67-0.01-3.03-1.37-3.04-3.04c0-0.84,0.33-1.61,0.87-2.17h-7   C27.31,50.88,32.89,53.85,38.79,52.99z M40.19,48.09c0.84,0,1.51,0.68,1.51,1.51s-0.68,1.51-1.51,1.51c-0.84,0-1.51-0.68-1.51-1.51   S39.36,48.09,40.19,48.09z"/>
	<path class="st3" d="M49.54,33.86c-0.19-0.44-0.42-0.56-0.87-0.56c-3.92,0.02-7.85,0.01-11.77,0.01c-0.22,2.64-2.43,4.72-5.13,4.72   c-2.7,0-4.92-2.08-5.13-4.73c-0.61,0-1.21,0-1.82,0c-0.46,0-0.69,0.12-0.87,0.56c-0.88,2.14-1.24,4.35-1.03,6.62h13.83   c0-0.08-0.01-0.16-0.01-0.24c0-2.73,2.22-4.95,4.96-4.95c2.73,0,4.95,2.22,4.95,4.96c0,0.07,0,0.15-0.01,0.22h3.92   C50.78,38.3,50.47,36.04,49.54,33.86z"/>
	<path class="st4" d="M41.72,35.29c-2.74,0-4.96,2.21-4.96,4.95c0,0.08,0,0.16,0.01,0.24h9.9c0-0.07,0.01-0.15,0.01-0.22   C46.67,37.52,44.45,35.3,41.72,35.29z"/>
	<path class="st4" d="M33.76,51.15L33.76,51.15c0.1,0,0.21,0,0.31-0.01c1.56-0.15,2.77-1.45,2.78-3.04c0-0.84-0.33-1.6-0.87-2.15   h-4.37c-0.54,0.56-0.88,1.32-0.87,2.17C30.73,49.78,32.09,51.14,33.76,51.15z"/>
	<path class="st5" d="M31.77,38.04c2.7,0,4.91-2.08,5.13-4.72c0.01-0.14,0.02-0.28,0.02-0.43c0-2.84-2.31-5.15-5.15-5.15   c-2.84,0-5.15,2.31-5.15,5.15c0,0.14,0.01,0.28,0.02,0.42C26.86,35.95,29.07,38.04,31.77,38.04z"/>
	<ellipse transform="matrix(0.9871 -0.1602 0.1602 0.9871 -1.2191 5.8745)" class="st5" cx="35.83" cy="10.5" rx="1.51" ry="1.51"/>
	<circle class="st5" cx="40.19" cy="49.61" r="1.51"/>
</g>
</svg>