<?xml version="1.0" encoding="UTF-8" standalone="no"?>
<!-- Created with Inkscape (http://www.inkscape.org/) -->

<svg
   width="720"
   height="440"
   viewBox="0 0 190.49999 116.41666"
   version="1.1"
   id="svg1"
   xml:space="preserve"
   sodipodi:docname="1-1-NGM-schema.svg"
   inkscape:version="1.4.3 (0d15f75, 2025-12-25)"
   inkscape:export-filename="NGM-tool-web.svg"
   inkscape:export-xdpi="78.619049"
   inkscape:export-ydpi="78.619049"
   xmlns:inkscape="http://www.inkscape.org/namespaces/inkscape"
   xmlns:sodipodi="http://sodipodi.sourceforge.net/DTD/sodipodi-0.dtd"
   xmlns="http://www.w3.org/2000/svg"
   xmlns:svg="http://www.w3.org/2000/svg"><sodipodi:namedview
     id="namedview1"
     pagecolor="#ffffff"
     bordercolor="#000000"
     borderopacity="0.25"
     inkscape:showpageshadow="2"
     inkscape:pageopacity="0.0"
     inkscape:pagecheckerboard="0"
     inkscape:deskcolor="#d1d1d1"
     inkscape:document-units="px"
     inkscape:zoom="0.5"
     inkscape:cx="416"
     inkscape:cy="254"
     inkscape:window-width="1362"
     inkscape:window-height="911"
     inkscape:window-x="61"
     inkscape:window-y="43"
     inkscape:window-maximized="0"
     inkscape:current-layer="layer3"
     showguides="true" /><defs
     id="defs1"><rect
       x="441.20438"
       y="657.72821"
       width="366.94693"
       height="48.343517"
       id="rect15" /><rect
       x="377.37616"
       y="193.19408"
       width="225.05141"
       height="110.09183"
       id="rect10" /><rect
       x="407.22833"
       y="195.44707"
       width="99.694901"
       height="56.88805"
       id="rect9" /><rect
       x="377.37616"
       y="193.19408"
       width="325.13699"
       height="120.85608"
       id="rect10-6" /><rect
       x="377.37616"
       y="193.19408"
       width="95.14431"
       height="118.07442"
       id="rect10-6-6" /><rect
       x="377.37616"
       y="193.19408"
       width="360.92798"
       height="65.962494"
       id="rect10-7" /><rect
       x="377.37616"
       y="193.19408"
       width="368.54144"
       height="76.728622"
       id="rect10-7-8" /></defs><g
     inkscape:groupmode="layer"
     id="layer2"
     inkscape:label="Layer 2"><path
       d="m 30.222274,57.882441 c -1.30202,-0.16564 -2.35609,-0.85929 -2.95568,-1.94503 -0.4248,-0.76921 -0.5171,-1.78312 -0.24085,-2.64564 0.34856,-1.0883 1.24463,-1.97208 2.37551,-2.34291 0.25159,-0.0825 0.52069,-0.14229 0.78365,-0.17412 0.10551,-0.0128 4.64863,-0.0189 13.98364,-0.0189 15.28026,0 13.98868,-0.0105 14.49876,0.11797 0.46296,0.11662 0.91473,0.3277 1.32646,0.61976 0.19928,0.14137 0.54126,0.46458 0.70064,0.66219 0.35389,0.43879 0.59632,0.94892 0.71542,1.50539 0.0507,0.23675 0.0711,0.82327 0.0378,1.08744 -0.14645,1.16353 -0.90217,2.19898 -2.00401,2.74581 -0.47599,0.23622 -0.92224,0.35616 -1.48273,0.39852 -0.16647,0.0126 -4.77203,0.0181 -13.89697,0.0165 -11.26677,-0.002 -13.68178,-0.007 -13.84165,-0.0269 z m 27.81232,-0.67293 c 0.94383,-0.10252 1.79383,-0.60373 2.29346,-1.35234 0.20086,-0.30096 0.36394,-0.70454 0.42922,-1.06227 0.0444,-0.2435 0.0439,-0.70505 -0.001,-0.94061 -0.25218,-1.32031 -1.37359,-2.2905 -2.79132,-2.41491 -0.29913,-0.0263 -27.35475,-0.0268 -27.6135,-5.9e-4 -0.57291,0.0581 -1.06362,0.23088 -1.52354,0.53647 -0.26258,0.17446 -0.63389,0.54176 -0.79865,0.79001 -0.63959,0.96372 -0.65081,2.12339 -0.0297,3.07167 0.12703,0.19394 0.18449,0.26455 0.36562,0.44927 0.51083,0.52095 1.19148,0.84478 1.94017,0.92306 0.22362,0.0234 27.51412,0.0236 27.72933,2.4e-4 z m -27.7264,-0.17387 c -1.06174,-0.17273 -1.9151,-0.86703 -2.23275,-1.81655 -0.0978,-0.29248 -0.1275,-0.49292 -0.1269,-0.85761 7.4e-4,-0.44657 0.0663,-0.73934 0.2479,-1.10659 0.0865,-0.17502 0.21558,-0.37809 0.24027,-0.37809 0.01,0 0.10619,-0.0926 0.21454,-0.20568 0.10835,-0.11312 0.24746,-0.24391 0.30914,-0.29064 0.0617,-0.0467 0.10909,-0.0941 0.10536,-0.10532 -0.0166,-0.0497 0.44751,-0.28365 0.74155,-0.37377 0.35946,-0.11018 0.42447,-0.11639 1.31681,-0.12583 l 0.81885,-0.009 -0.0117,0.08 c -0.006,0.044 -0.0162,0.0966 -0.0217,0.11692 -0.008,0.0313 0.0186,0.0516 0.17957,0.13429 0.97244,0.49963 1.54902,1.50441 1.453,2.53207 -0.0549,0.58747 -0.27781,1.08509 -0.68997,1.54016 -0.0669,0.0738 -0.12159,0.1387 -0.12159,0.14414 0,0.005 0.3133,0.0123 0.69623,0.0151 0.68511,0.005 0.69762,0.006 0.78282,0.0479 0.16609,0.0818 0.28875,0.24472 0.31853,0.42305 l 0.0131,0.0784 h -1.25576 -1.25576 v -0.0461 c 0,-0.0254 -0.004,-0.0461 -0.009,-0.0461 -0.005,0 -0.0553,0.0206 -0.11234,0.0458 -0.14845,0.0656 -0.37725,0.13598 -0.57981,0.17822 -0.23562,0.0491 -0.78854,0.0626 -1.02067,0.0248 z m 0.57804,-2.0384 c 0.16633,-0.0259 0.3669,-0.12739 0.45926,-0.23232 0.18653,-0.21192 0.18879,-0.44485 0.007,-0.68412 -0.15793,-0.20744 -0.56501,-0.30492 -0.873,-0.20907 -0.23791,0.074 -0.41949,0.25668 -0.46342,0.4661 -0.0633,0.30193 0.21071,0.60273 0.60129,0.66 0.13579,0.0199 0.13784,0.0199 0.26924,-5.9e-4 z m 12.95637,2.05469 c -0.20475,-0.0311 -0.39048,-0.0723 -0.5361,-0.11895 -0.0927,-0.0297 -0.19883,-0.054 -0.23582,-0.054 -0.0472,0 -0.0673,-0.008 -0.0673,-0.0274 0,-0.0151 -0.0496,-0.0524 -0.11013,-0.083 -0.12023,-0.0607 -0.15064,-0.0678 -0.13987,-0.0325 0.004,0.0127 0.0117,0.05 0.0174,0.083 l 0.0104,0.0599 h -1.25368 -1.25368 v -0.052 c 0,-0.10973 0.0596,-0.23161 0.16462,-0.33663 0.16581,-0.16581 0.15841,-0.16462 1.02825,-0.16462 0.40902,0 0.74367,-0.005 0.74367,-0.0113 0,-0.006 -0.0659,-0.0809 -0.14635,-0.16595 -0.34621,-0.36575 -0.57644,-0.84168 -0.65906,-1.36238 -0.0353,-0.22247 -0.0246,-0.6659 0.0211,-0.87175 0.17644,-0.79534 0.70541,-1.46615 1.45182,-1.84112 0.0538,-0.0271 0.0996,-0.0506 0.10166,-0.0523 0.002,-0.002 -0.008,-0.036 -0.0222,-0.0762 -0.0143,-0.0402 -0.0264,-0.0959 -0.0268,-0.12378 l -8.1e-4,-0.0507 h 1.24491 c 0.68471,0 1.24492,0.007 1.24492,0.0146 0,0.008 -0.0127,0.0631 -0.0281,0.1225 -0.0155,0.0594 -0.0258,0.10965 -0.0231,0.11173 0.003,0.002 0.0673,0.0349 0.14339,0.073 1.02139,0.51129 1.60908,1.59948 1.44903,2.68306 -0.0771,0.52184 -0.31914,1.01686 -0.68546,1.4018 -0.0852,0.0896 -0.15494,0.16776 -0.15494,0.17379 0,0.006 0.0213,0.003 0.0473,-0.007 0.0281,-0.0107 0.37411,-0.018 0.853,-0.018 l 0.80569,1e-5 0.11066,0.0524 c 0.17767,0.0842 0.29677,0.23804 0.31709,0.40961 l 0.0108,0.0912 h -1.25755 -1.25754 l 0.0116,-0.0692 c 0.006,-0.038 0.0313,-0.11036 0.0553,-0.16071 0.024,-0.0503 0.042,-0.0929 0.0399,-0.0946 -0.002,-0.002 -0.0812,0.0435 -0.17586,0.10047 -0.16677,0.10032 -0.17189,0.1054 -0.16508,0.16377 l 0.007,0.0602 h -0.14984 c -0.11186,0 -0.18454,0.0118 -0.28678,0.0466 -0.26974,0.0918 -0.46218,0.1213 -0.83778,0.12825 -0.19273,0.004 -0.37532,0.003 -0.40575,-0.002 z m 0.46108,-2.05275 c 0.16884,-0.0249 0.3107,-0.0864 0.41455,-0.17975 0.13151,-0.11823 0.18708,-0.22069 0.19878,-0.36648 0.009,-0.10687 0.004,-0.13132 -0.0485,-0.23704 -0.0701,-0.14251 -0.16908,-0.23574 -0.33205,-0.31296 -0.11666,-0.0553 -0.13253,-0.0579 -0.35269,-0.0579 -0.22057,0 -0.23587,0.002 -0.35374,0.0584 -0.33042,0.15654 -0.46959,0.44871 -0.33994,0.7137 0.115,0.23506 0.35258,0.37456 0.67523,0.39646 0.0152,0.001 0.0775,-0.005 0.13833,-0.0144 z m 12.92104,1.95202 c -0.0651,-0.008 -0.17462,-0.0281 -0.24341,-0.0438 -0.0688,-0.0156 -0.15041,-0.0284 -0.18137,-0.0284 -0.031,0 -0.0563,-0.007 -0.0563,-0.016 0,-0.0138 -0.19464,-0.0947 -0.22783,-0.0947 -0.007,0 -0.0119,0.0249 -0.0119,0.0553 v 0.0553 h -1.2565 -1.2565 l 0.012,-0.0753 c 0.0267,-0.16683 0.15587,-0.3441 0.31131,-0.42716 0.0762,-0.0407 0.0927,-0.0417 0.75568,-0.0471 0.37279,-0.003 0.67779,-0.008 0.67779,-0.0113 0,-0.003 -0.0733,-0.0796 -0.16286,-0.16975 -0.3803,-0.38264 -0.61678,-0.81254 -0.72423,-1.31658 -0.0577,-0.27069 -0.059,-0.74057 -0.003,-0.99592 0.11413,-0.5175 0.35151,-0.95275 0.72375,-1.32697 l 0.17521,-0.17616 h -0.80228 -0.80229 l -0.10303,-0.0483 c -0.17918,-0.084 -0.30862,-0.25527 -0.33639,-0.44504 l -0.0101,-0.0692 h 1.24627 1.24626 l -0.0114,0.0831 c -0.006,0.0457 -0.0283,0.11623 -0.049,0.15677 -0.0207,0.0405 -0.0336,0.0737 -0.0288,0.0737 0.005,0 0.0777,-0.0354 0.16175,-0.0786 l 0.15291,-0.0786 -0.006,-0.0782 -0.006,-0.0782 0.22699,-5e-5 c 0.15269,-4e-5 0.29038,-0.0124 0.42064,-0.0377 0.76951,-0.14952 1.57325,0.0193 2.23163,0.46886 0.19624,0.13398 0.56098,0.50272 0.68826,0.69581 0.21544,0.32682 0.34875,0.66149 0.40986,1.02894 0.0387,0.23292 0.0288,0.7309 -0.0185,0.92414 -0.11943,0.48859 -0.35155,0.91827 -0.67806,1.25523 -0.44261,0.45676 -0.99987,0.74027 -1.64672,0.83776 -0.1967,0.0297 -0.61983,0.0338 -0.81897,0.008 z m 0.63442,-2.0676 c 0.11925,-0.0303 0.24774,-0.10413 0.33185,-0.19067 0.23116,-0.23785 0.21685,-0.53016 -0.0373,-0.76246 -0.15225,-0.13915 -0.26271,-0.17564 -0.53398,-0.17643 -0.19007,-5.5e-4 -0.23654,0.005 -0.32909,0.0425 -0.23244,0.0932 -0.39375,0.28857 -0.41294,0.50022 -0.009,0.0982 -0.003,0.12404 0.0484,0.2294 0.15347,0.31175 0.53601,0.45827 0.93306,0.35738 z m -23.08121,1.93544 c 4.3e-4,-0.14399 0.15087,-0.35874 0.30727,-0.43863 l 0.0891,-0.0455 0.81889,-0.005 c 0.9402,-0.006 0.93084,-0.007 1.09699,0.14467 0.10051,0.0919 0.16245,0.2029 0.1871,0.33541 l 0.0129,0.0692 h -1.25619 -1.25619 z m 2.75213,-0.0205 c 0.0204,-0.1812 0.18458,-0.3841 0.35876,-0.44345 0.12932,-0.0441 1.6351,-0.0438 1.76453,2.6e-4 0.17616,0.06 0.33452,0.2545 0.37009,0.45451 l 0.0123,0.0692 h -1.25737 -1.25738 z m 10.97808,0.0113 c 0.0324,-0.1762 0.14194,-0.32909 0.30491,-0.42571 l 0.083,-0.0492 0.83824,-0.005 0.83823,-0.005 0.11523,0.0567 c 0.18499,0.0911 0.32005,0.27927 0.32005,0.44597 v 0.052 h -1.25619 -1.25619 z m 2.74785,0 c 0.032,-0.17649 0.1582,-0.35123 0.31432,-0.43522 0.0719,-0.0387 0.0944,-0.0398 0.90972,-0.045 l 0.83595,-0.005 0.0963,0.0441 c 0.053,0.0242 0.12663,0.0707 0.16373,0.1033 0.0814,0.0715 0.17984,0.26074 0.17984,0.34574 v 0.0616 h -1.25619 -1.25619 z m -18.65944,-4.48739 c -0.22907,-0.0558 -0.43705,-0.28539 -0.43756,-0.48306 l -1.8e-4,-0.0692 h 1.2357 1.23569 l -10e-6,0.0599 c -2e-5,0.0907 -0.0946,0.27194 -0.18389,0.3525 -0.0435,0.0392 -0.11737,0.089 -0.16426,0.11066 -0.0823,0.0381 -0.11141,0.0395 -0.85065,0.0427 -0.42096,0.002 -0.79664,-0.004 -0.83484,-0.0136 z m 2.67825,-0.005 c -0.10932,-0.0302 -0.20124,-0.0881 -0.28213,-0.17761 -0.0874,-0.0967 -0.12252,-0.16893 -0.13548,-0.27834 l -0.0108,-0.0912 h 1.23827 1.23826 v 0.052 c 0,0.16487 -0.16001,0.38691 -0.33621,0.46654 -0.0969,0.0438 -0.0998,0.0439 -0.8626,0.0478 -0.56835,0.003 -0.78699,-0.002 -0.8493,-0.0193 z m 2.71478,0.005 c -0.22635,-0.0458 -0.44535,-0.29187 -0.44535,-0.50034 v -0.052 h 1.2357 1.2357 v 0.0702 c 0,0.15544 -0.15186,0.35862 -0.33198,0.44418 l -0.10144,0.0482 -0.75617,0.003 c -0.4159,0.002 -0.7923,-0.004 -0.83646,-0.0132 z m 2.69602,5.7e-4 c -0.22096,-0.045 -0.41186,-0.24792 -0.44231,-0.47007 l -0.0114,-0.0829 h 1.24627 1.24626 l -0.0101,0.0692 c -0.0278,0.18976 -0.15721,0.36101 -0.33639,0.44504 l -0.10303,0.0483 -0.75617,0.003 c -0.4159,0.002 -0.79081,-0.004 -0.83315,-0.0126 z m 5.3644,-0.01 c -0.1914,-0.0515 -0.34543,-0.19906 -0.40015,-0.38332 -0.0529,-0.17805 -0.19369,-0.15962 1.21949,-0.15962 h 1.24697 l -0.012,0.0692 c -0.0416,0.23915 -0.20054,0.41555 -0.42785,0.47475 -0.15139,0.0394 -1.47926,0.0386 -1.62644,-9.7e-4 z m 2.70641,0.004 c -0.23527,-0.065 -0.39348,-0.23678 -0.43167,-0.4687 l -0.0129,-0.0784 h 1.24889 1.2489 l -0.0121,0.0784 c -0.029,0.18684 -0.16387,0.36294 -0.34074,0.44472 -0.0823,0.038 -0.11209,0.0396 -0.85064,0.0433 -0.57003,0.003 -0.78691,-0.002 -0.8497,-0.0194 z m 2.69272,0 c -0.23315,-0.0644 -0.39289,-0.23879 -0.42935,-0.4687 l -0.0124,-0.0784 h 1.24513 1.24514 v 0.0454 c 0,0.0814 -0.0734,0.24405 -0.14882,0.32974 -0.0415,0.0471 -0.11998,0.10653 -0.1792,0.13561 l -0.1054,0.0517 -0.76539,0.004 c -0.57003,0.003 -0.78691,-0.002 -0.84969,-0.0194 z"
       style="display:inline;fill:#1a4a88"
       id="path1-4"
       inkscape:export-filename="cat1_NGM_container.png"
       inkscape:export-xdpi="300"
       inkscape:export-ydpi="300"
       inkscape:label="conveyer-belt" /><g
       id="g1"
       inkscape:label="truck"
       transform="matrix(1.2122501,0,0,1.2122501,0.96673468,-75.651406)"><path
         d="m 85.189128,109.7327 c -0.96051,-0.14365 -1.67515,-0.58148 -2.15668,-1.3213 -0.26412,-0.40578 -0.39005,-0.81337 -0.41025,-1.32776 l -0.0114,-0.29048 h -0.50978 c -0.56509,0 -0.63953,-0.0103 -0.83854,-0.11584 -0.19024,-0.10091 -0.29235,-0.22321 -0.51221,-0.6135 -0.1083,-0.19227 -0.36278,-0.64203 -0.56549,-0.99946 l -0.36856,-0.64988 0.15308,-0.0925 0.15308,-0.0925 h 19.33326 19.333262 l -0.009,-5.352559 c -0.008,-4.34584 -0.005,-5.37409 0.0145,-5.46702 0.0695,-0.33223 0.32221,-0.60095 0.65558,-0.69715 0.092,-0.0266 0.25731,-0.0293 1.4939,-0.0247 l 1.39042,0.005 0.10018,0.0426 c 0.0551,0.0234 0.13934,0.0691 0.1872,0.10144 0.0479,0.0324 0.55044,0.49875 1.11685,1.03637 l 1.02984,0.9775 1.28202,0.01 c 1.27056,0.01 1.28301,0.01 1.3912,0.0508 0.29371,0.11089 0.50146,0.33287 0.58961,0.62997 0.027,0.0911 0.0297,0.57005 0.0295,5.283999 -1.9e-4,4.32356 -0.004,5.19952 -0.0254,5.27846 -0.0632,0.23725 -0.23897,0.4629 -0.44669,0.57335 -0.1894,0.10071 -0.2834,0.11584 -0.71956,0.11584 h -0.39108 l -0.0114,0.14294 c -0.0609,0.76028 -0.39187,1.4225 -0.94902,1.89868 -1.21405,1.03761 -3.07001,0.94323 -4.1526,-0.21118 -0.43619,-0.46512 -0.68092,-1.02295 -0.72917,-1.66203 l -0.0127,-0.16841 h -2.54252 -2.54252 v 0.22729 c 0,1.14598 -0.79528,2.19382 -1.95393,2.57445 -0.33855,0.11122 -0.53788,0.13976 -0.96932,0.13881 -0.32997,-7.3e-4 -0.41598,-0.007 -0.58096,-0.0424 -0.81513,-0.17484 -1.46099,-0.60468 -1.89375,-1.26035 -0.2447,-0.37073 -0.38313,-0.77092 -0.4262,-1.23205 l -0.0146,-0.15677 -0.0143,0.15677 c -0.11399,1.24863 -1.0697,2.26022 -2.36335,2.50154 -0.27892,0.052 -0.88802,0.0475 -1.14807,-0.008 -1.36493,-0.29415 -2.30423,-1.37759 -2.31397,-2.66905 l -0.002,-0.22842 -1.85071,-3.8e-4 -1.85071,-3.7e-4 v 0.18926 c 0,0.72878 -0.277002,1.38202 -0.811092,1.91274 -0.40123,0.39871 -0.91145,0.67042 -1.49105,0.79403 -0.25868,0.0552 -0.77297,0.0692 -1.04797,0.0287 -0.67017,-0.0989 -1.23429,-0.38285 -1.70334,-0.85743 -0.46024,-0.46567 -0.72477,-1.03648 -0.7729,-1.6678 l -0.0129,-0.16944 -0.013,0.1291 c -0.0725,0.71782 -0.31341,1.23453 -0.80447,1.72574 -0.43876,0.43891 -0.9496,0.7081 -1.55967,0.82191 -0.28177,0.0526 -0.88815,0.0478 -1.15271,-0.009 -0.89939,-0.19328 -1.62467,-0.72882 -2.02681,-1.49659 -0.15564,-0.29713 -0.25369,-0.64642 -0.28992,-1.03278 l -0.0147,-0.15677 -0.0133,0.18444 c -0.0254,0.35261 -0.10284,0.62809 -0.2747,0.97749 -0.32605,0.66288 -0.94336,1.18933 -1.6749,1.42839 -0.32025,0.10465 -0.49491,0.13198 -0.88821,0.13899 -0.19781,0.004 -0.38455,0.003 -0.41498,-0.002 z m 0.80775,-1.41639 c 0.50748,-0.15022 0.87037,-0.48645 1.02696,-0.95153 0.0561,-0.16661 0.07,-0.46312 0.0297,-0.63418 -0.12941,-0.5492 -0.59554,-0.97748 -1.1882,-1.09172 -0.18,-0.0347 -0.50503,-0.0332 -0.68155,0.003 -0.42988,0.0886 -0.81349,0.35487 -1.0233,0.71034 -0.15405,0.26101 -0.21299,0.59996 -0.15226,0.87571 0.12715,0.57739 0.57084,0.99225 1.20184,1.12374 0.20157,0.042 0.58306,0.0248 0.78685,-0.0356 z m -0.65037,-0.70428 c -0.18926,-0.0509 -0.37149,-0.2026 -0.44914,-0.37397 -0.0292,-0.0644 -0.0388,-0.12359 -0.0394,-0.24202 -6.8e-4,-0.13415 0.006,-0.1714 0.0492,-0.25821 0.18985,-0.38541 0.67744,-0.5064 1.0388,-0.25778 0.30665,0.21098 0.35683,0.64336 0.10692,0.92132 -0.18407,0.20473 -0.44207,0.28168 -0.70633,0.21066 z m 6.47336,0.71464 c 0.55065,-0.15046 0.96114,-0.54765 1.08029,-1.04527 0.04,-0.16692 0.0398,-0.42677 -2.7e-4,-0.58045 -0.0714,-0.27355 -0.2539,-0.55616 -0.47686,-0.73846 -0.13399,-0.10956 -0.43203,-0.25942 -0.60355,-0.30349 -0.16328,-0.0419 -0.53626,-0.057 -0.71162,-0.0287 -0.50399,0.0813 -0.92427,0.37912 -1.1335,0.80322 -0.0984,0.19945 -0.13427,0.35008 -0.13395,0.56252 9.9e-4,0.65195 0.51408,1.2221 1.21984,1.35549 0.19851,0.0375 0.57662,0.0251 0.75962,-0.0249 z m -0.59526,-0.70397 c -0.11412,-0.0288 -0.25179,-0.10755 -0.33686,-0.19262 -0.31547,-0.31547 -0.21127,-0.82415 0.20921,-1.02127 0.0915,-0.0429 0.12793,-0.0491 0.2891,-0.0491 0.16117,0 0.19763,0.006 0.2891,0.0491 0.51603,0.24191 0.5213,0.92054 0.009,1.16027 -0.12826,0.06 -0.33755,0.0844 -0.45955,0.0536 z m 6.48657,0.69279 c 0.83445,-0.24692 1.27811,-1.04782 0.98559,-1.77917 -0.18228,-0.45572 -0.59451,-0.78801 -1.10955,-0.8944 -0.1819,-0.0376 -0.50926,-0.0375 -0.69202,1.7e-4 -0.92348,0.19029 -1.44441,1.07952 -1.09176,1.86367 0.18035,0.40104 0.55135,0.70597 0.99571,0.8184 0.19936,0.0504 0.22302,0.0526 0.49797,0.0461 0.20365,-0.005 0.27903,-0.0148 0.41406,-0.0548 z m -0.64958,-0.70136 c -0.0535,-0.015 -0.12323,-0.0408 -0.15506,-0.0573 -0.0935,-0.0483 -0.23638,-0.19325 -0.28897,-0.29304 -0.0428,-0.0812 -0.0488,-0.11406 -0.0489,-0.26779 -9e-5,-0.16467 0.004,-0.18223 0.0632,-0.29188 0.0722,-0.13306 0.16722,-0.2221 0.31427,-0.29432 0.0903,-0.0444 0.12312,-0.0501 0.28643,-0.0501 0.16422,0 0.19702,0.006 0.2992,0.053 0.13499,0.0624 0.28263,0.20846 0.34246,0.3389 0.0306,0.0666 0.0403,0.12309 0.0405,0.23555 2.4e-4,0.13022 -0.007,0.16265 -0.0602,0.27084 -0.14256,0.28958 -0.48405,0.44295 -0.79286,0.35609 z m 10.147762,0.71115 c 0.73659,-0.19379 1.22301,-0.88588 1.0906,-1.55174 -0.11188,-0.56265 -0.57429,-1.00738 -1.17644,-1.13145 -0.17854,-0.0368 -0.52427,-0.0381 -0.69119,-0.002 -0.554,0.11788 -0.97077,0.46544 -1.14239,0.9527 -0.0638,0.18103 -0.0799,0.48182 -0.0359,0.67122 0.0494,0.2129 0.17844,0.44964 0.33697,0.61815 0.23075,0.24529 0.48433,0.38698 0.82547,0.46123 0.21849,0.0476 0.57547,0.0396 0.7929,-0.0176 z m -0.61641,-0.71212 c -0.19252,-0.054 -0.35021,-0.17929 -0.44004,-0.34969 -0.0425,-0.0807 -0.0486,-0.11406 -0.0489,-0.26743 -2.3e-4,-0.14911 0.006,-0.18895 0.0451,-0.26743 0.061,-0.12416 0.19965,-0.25894 0.32842,-0.31928 0.0927,-0.0435 0.12857,-0.0496 0.29021,-0.0496 0.16151,0 0.19755,0.006 0.2899,0.0494 0.30009,0.14065 0.45938,0.45287 0.3765,0.73796 -0.0581,0.2 -0.22872,0.38352 -0.41741,0.44909 -0.12333,0.0429 -0.30532,0.0501 -0.42375,0.0169 z m 6.33392,0.73809 c 0.72152,-0.12582 1.24679,-0.70277 1.24553,-1.36807 -7.2e-4,-0.37944 -0.20066,-0.77154 -0.52758,-1.03466 -0.14114,-0.1136 -0.39595,-0.24124 -0.57874,-0.28991 -0.17566,-0.0468 -0.59943,-0.058 -0.77982,-0.0207 -0.55426,0.11462 -0.99357,0.49094 -1.15132,0.98623 -0.0977,0.30687 -0.0722,0.60641 0.078,0.91601 0.0979,0.20179 0.20831,0.34405 0.3713,0.4785 0.35782,0.29514 0.85348,0.41794 1.34264,0.33264 z m -0.46942,-0.73386 c -0.20684,-0.0599 -0.3727,-0.19073 -0.45554,-0.35941 -0.0443,-0.0902 -0.0516,-0.12757 -0.0516,-0.26194 0,-0.13461 0.007,-0.17173 0.052,-0.26262 0.0662,-0.13487 0.18689,-0.25553 0.32172,-0.32172 0.0957,-0.047 0.12445,-0.052 0.29948,-0.052 0.17678,0 0.20327,0.005 0.30391,0.0541 0.13511,0.0662 0.26369,0.19196 0.32198,0.31482 0.0652,0.13745 0.0728,0.33518 0.0184,0.47952 -0.0578,0.15352 -0.22381,0.31936 -0.37687,0.37655 -0.13616,0.0509 -0.32215,0.0649 -0.43344,0.0327 z m 11.29648,0.55742 c 0.63827,-0.0767 1.15619,-0.50033 1.30228,-1.06527 0.1826,-0.70611 -0.29664,-1.44125 -1.06693,-1.63665 -0.59786,-0.15166 -1.17716,-0.003 -1.5817,0.40562 -0.24096,0.24345 -0.34875,0.45103 -0.39757,0.76571 -0.0835,0.5379 0.27348,1.13399 0.83393,1.39265 0.28562,0.13182 0.58415,0.17708 0.90999,0.13794 z m -0.39653,-0.75241 c -0.34925,-0.11456 -0.55236,-0.44178 -0.47165,-0.75985 0.0781,-0.30795 0.33432,-0.50077 0.66531,-0.50077 0.19764,0 0.3267,0.0495 0.4667,0.17915 0.15988,0.14802 0.19725,0.23545 0.19725,0.46145 0,0.16992 -0.004,0.1922 -0.0546,0.28308 -0.0647,0.11681 -0.19572,0.23984 -0.31829,0.29889 -0.0692,0.0333 -0.12594,0.0436 -0.26337,0.0478 -0.0964,0.003 -0.19596,-0.002 -0.22132,-0.01 z m -34.892252,-0.54064 c 0.003,-0.0375 -1.9e-4,-0.0742 -0.007,-0.0815 -0.007,-0.007 -0.0133,0.0268 -0.0133,0.0759 0,0.10262 0.0123,0.10592 0.0208,0.006 z m 5.85454,-0.0844 c -0.0195,-0.0195 -0.0229,0.005 -0.0122,0.088 l 0.0107,0.083 0.006,-0.0803 c 0.003,-0.0442 10e-4,-0.085 -0.004,-0.0907 z m 15.384292,0.0281 c -0.004,-0.0228 -0.008,-0.004 -0.008,0.0415 0,0.0456 0.004,0.0643 0.008,0.0415 0.004,-0.0228 0.004,-0.0602 0,-0.083 z m -26.766952,-1.09 c 0.0886,-0.16255 0.20238,-0.32645 0.33801,-0.4869 l 0.0818,-0.0968 h -1.03424 c -0.56884,0 -1.03425,0.004 -1.03425,0.009 0,0.005 0.0919,0.1709 0.20411,0.36887 l 0.2041,0.35994 h 0.57824 0.57824 z m 5.825,0.0547 c 0.0716,-0.14592 0.20131,-0.34252 0.31376,-0.47545 0.0544,-0.0643 0.10518,-0.12724 0.1129,-0.13992 0.0111,-0.0183 -0.14069,-0.023 -0.73549,-0.023 h -0.74952 l 0.0945,0.10604 c 0.10615,0.11908 0.25969,0.34342 0.35328,0.5162 l 0.0623,0.11505 0.24976,2.2e-4 0.24975,2.1e-4 z m 5.86297,-0.0156 c 0.08,-0.15847 0.1966,-0.33204 0.32899,-0.48972 l 0.11175,-0.13308 h -0.74708 c -0.41089,0 -0.74708,0.004 -0.74708,0.008 0,0.005 0.0423,0.0564 0.0939,0.11527 0.11387,0.12985 0.27131,0.36411 0.34157,0.50826 l 0.0517,0.10605 h 0.2541 0.2541 z m 7.190712,-0.25394 v -0.36886 h -1.19843 -1.198432 l 0.12285,0.15215 c 0.13704,0.16973 0.25284,0.34325 0.32617,0.48875 l 0.0488,0.0968 h 0.949512 0.94952 z m 2.33276,0.26277 c 0.0806,-0.15527 0.25105,-0.40412 0.36,-0.52558 l 0.0951,-0.10605 h -0.94208 -0.94208 v 0.36886 0.36887 l 0.68701,-5e-5 0.68701,-4e-5 z m 5.84877,0.009 c 0.0744,-0.14786 0.22872,-0.378 0.34638,-0.51641 l 0.10583,-0.12449 h -0.74877 -0.74877 l 0.12327,0.15144 c 0.13408,0.16473 0.20845,0.27527 0.31219,0.46399 l 0.0672,0.1223 h 0.24698 0.24698 z m 10.8676,-0.0692 c 0.0598,-0.13428 0.20768,-0.38762 0.30956,-0.53024 l 0.0296,-0.0415 h -3.20362 -3.20363 l 0.0953,0.10605 c 0.10551,0.11742 0.27891,0.3714 0.36138,0.52931 l 0.0535,0.10238 2.74406,-0.005 2.74406,-0.005 z m 6.29187,-2.10154 v -2.26757 l -1.36019,-0.006 c -1.25445,-0.005 -1.36706,-0.008 -1.44861,-0.0389 -0.0486,-0.0182 -0.69599,-0.29468 -1.43858,-0.61441 -0.95925,-0.41302 -1.37761,-0.60203 -1.44502,-0.65285 -0.12606,-0.095 -0.2135,-0.204729 -0.28712,-0.360189 l -0.0606,-0.12806 v -0.82072 -0.82074 l 0.069,-0.14445 c 0.0815,-0.17077 0.249,-0.3501 0.39693,-0.42506 0.21453,-0.1087 0.0715,-0.10366 2.94096,-0.10366 h 2.63372 l -0.005,-0.73312 -0.005,-0.73312 -3.73015,-0.005 -3.73014,-0.005 v 4.233 4.232989 l 1.42474,-0.005 1.42474,-0.005 0.16599,-0.0515 c 0.28888,-0.0896 0.46392,-0.11284 0.84839,-0.11262 0.3801,2.2e-4 0.55834,0.0237 0.85273,0.11242 0.0889,0.0268 0.19692,0.0523 0.24003,0.0567 0.0471,0.005 0.0784,0.0173 0.0784,0.0315 0,0.013 0.0436,0.0421 0.0968,0.0648 0.1552,0.0661 0.41615,0.22583 0.59565,0.36456 0.35972,0.278 0.67501,0.68674 0.85349,1.10646 l 0.0412,0.0968 h 0.42369 0.42368 z m 0,-4.335149 v -1.143493 h -2.57309 -2.57308 l 0.005,0.591913 0.005,0.59189 1.27258,0.54989 1.27258,0.549899 1.29564,0.002 1.29564,0.002 z m -3.79951,-4.52541 c -0.0557,-0.0545 -0.35659,-0.34086 -0.66868,-0.63642 l -0.56745,-0.5374 -1.22155,0.005 -1.22154,0.005 -0.005,0.63168 -0.005,0.63168 h 1.89509 1.89508 z"
         style="display:inline;fill:#1a4a88"
         id="path1-1"
         sodipodi:nodetypes="ssscsssscccccccsscssscscsscssccssscccsssssccsscccccssssssccsscsscsssssscsssssssccssscsssssscssssssssssscssssssssscsssssscssscscsscsscscssccscccssccsssssssssssssssscsssscssssssscssssssscscssccscccsccccssssscccsscccccsscscsscccscscsscsccccccccssccccsscccccccssscccsscccssscccsscccscccssssccccsscccccccccssssscssccccccccccccccccscccccccc" /></g><g
       id="g9"
       transform="matrix(1.6355438,0,0,1.6355438,-198.07913,-20.723949)"
       inkscape:export-filename="cat1_NGM_multitool.png"
       inkscape:export-xdpi="300"
       inkscape:export-ydpi="300"
       inkscape:label="tool"><path
         d="m 132.55396,80.601873 c -0.61134,-0.06823 -1.1967,-0.338703 -1.62713,-0.751835 -0.227,-0.217879 -0.38677,-0.428462 -0.51833,-0.683145 -0.18559,-0.359297 -0.2704,-0.712992 -0.27053,-1.128211 -2.6e-4,-0.788964 0.37098,-1.514752 1.02656,-2.006986 0.32674,-0.245328 0.6917,-0.409856 1.11927,-0.504579 l 0.18716,-0.04146 h 10.09767 c 9.81136,0 10.10238,9.83e-4 10.26366,0.03467 1.09943,0.22964 1.91672,1.009551 2.14244,2.04447 0.0464,0.21258 0.0471,0.735932 0.001,0.948489 -0.11114,0.515911 -0.33265,0.918994 -0.71307,1.297591 -0.47474,0.47247 -1.03907,0.732158 -1.72254,0.792662 -0.25533,0.0226 -19.78357,0.02098 -19.98644,-0.0017 z m 20.24154,-1.64969 c 0.37185,-0.09686 0.64617,-0.375072 0.72177,-0.732043 0.13722,-0.647906 -0.49497,-1.237678 -1.17373,-1.094968 -0.47241,0.09933 -0.79306,0.468651 -0.79306,0.913466 0,0.42297 0.28106,0.782022 0.71007,0.907115 0.14025,0.0409 0.39105,0.04391 0.53495,0.0064 z"
         style="display:inline;fill:#1a4a88"
         id="path1-0"
         sodipodi:nodetypes="cssssscssscsscccsssscc" /><path
         id="path1-8"
         style="display:inline;fill:#4a88c4;fill-opacity:1"
         d="m 153.65084,75.326327 c 0,0 2.87356,-2.580215 4.27094,-3.913282 l -0.0445,-0.13069 c -0.0793,-0.233241 -0.10731,-0.424272 -0.10731,-0.732716 0,-0.432758 0.0704,-0.722615 0.27055,-1.113515 0.47423,-0.926332 1.53498,-1.49137 2.6201,-1.395682 0.13368,0.01179 0.2503,0.02863 0.25915,0.03742 0.009,0.0091 -0.11955,0.575169 -0.29848,1.31273 -0.17302,0.713207 -0.3125,1.298819 -0.30996,1.301359 0.003,0.0025 0.61822,-0.135223 1.36819,-0.306143 1.30267,-0.296885 1.36419,-0.309144 1.37748,-0.274523 0.008,0.01993 0.0219,0.126715 0.0316,0.237296 0.10827,1.233772 -0.77642,2.375889 -2.05494,2.652892 -0.2463,0.05336 -0.56594,0.07534 -0.8108,0.05574 -0.23391,-0.01872 -0.25132,-0.02164 -0.51244,-0.08599 l -0.19737,-0.04864 -0.20838,0.194757 c -0.11461,0.107116 -0.62859,0.632128 -1.18588,1.118581 l -2.95919,2.583067 c -0.54232,-0.843794 -0.7419,-1.044345 -1.50876,-1.492661 z"
         sodipodi:nodetypes="cccscscscsccssscsscc" /><path
         d="m 148.36555,75.230314 -1.65357,-1.617464 c -0.46791,-0.428575 -0.86039,-0.777774 -0.87219,-0.775999 -0.0118,0.0018 -0.11809,0.0283 -0.23621,0.05895 -1.08502,0.281529 -2.22704,-0.105797 -2.88422,-0.978202 -0.24211,-0.321409 -0.39925,-0.698759 -0.46339,-1.112736 -0.032,-0.206664 -0.0234,-0.600775 0.0172,-0.790926 l 0.0232,-0.108526 0.81736,0.749429 c 0.44956,0.412186 0.8246,0.749429 0.83344,0.749429 0.0197,0 1.91731,-1.844099 1.91731,-1.863277 0,-0.0075 -0.36521,-0.348282 -0.81157,-0.757185 -0.44636,-0.408902 -0.80531,-0.749595 -0.79767,-0.757095 0.008,-0.0075 0.10934,-0.02763 0.226,-0.04474 0.30195,-0.04428 0.76403,-0.02865 1.03282,0.03495 1.06844,0.252805 1.85174,1.050626 2.02011,2.057552 0.0476,0.284744 0.0307,0.719783 -0.0377,0.970152 -0.0277,0.101438 -0.0515,0.203802 -0.0528,0.227475 -0.002,0.03466 2.51973,2.789082 3.79681,3.960106"
         style="display:inline;fill:#4a88c4;fill-opacity:1"
         id="path1-5"
         sodipodi:nodetypes="ccssssscsssscsssscc" /><path
         d="m 151.66997,75.239184 c 0.008,-0.03899 0.0118,-2.975231 0.009,-3.92195 l -0.005,-1.721308 -0.13832,-0.07321 c -0.26489,-0.140189 -0.44876,-0.276396 -0.66492,-0.492572 -0.3755,-0.375525 -0.58338,-0.752282 -0.69293,-1.255862 -0.0478,-0.219554 -0.0477,-0.719893 1.5e-4,-0.939858 0.10332,-0.47516 0.34919,-0.925042 0.68766,-1.258276 l 0.12596,-0.124017 7.8e-4,0.234677 c 6.2e-4,0.185052 0.009,0.265063 0.0417,0.378376 0.13126,0.461473 0.45457,0.840274 0.89184,1.044903 0.23067,0.107944 0.40977,0.149832 0.68874,0.161085 0.19471,0.0079 0.27271,0.0028 0.41516,-0.02673 0.61399,-0.127428 1.08391,-0.531029 1.27483,-1.094911 0.0506,-0.149452 0.0596,-0.205016 0.0668,-0.41248 0.006,-0.174954 6.9e-4,-0.272138 -0.0198,-0.359535 -0.0154,-0.06588 -0.0252,-0.122697 -0.0216,-0.12627 0.0107,-0.01068 0.1573,0.09674 0.29258,0.21438 0.23067,0.200581 0.46382,0.501528 0.60076,0.775451 0.082,0.164088 0.17867,0.462608 0.21228,0.655702 0.0363,0.20845 0.0368,0.604719 0.001,0.809824 -0.13201,0.757044 -0.64754,1.448105 -1.34661,1.805153 l -0.1565,0.07993 -9e-5,1.693893 -0.035,3.300508 -0.68516,0.661493"
         style="display:inline;fill:#4a88c4;fill-opacity:1"
         id="path1-6"
         sodipodi:nodetypes="cccssccscscsccscccssscscccc" /></g><g
       id="g7"
       transform="translate(-1.8597751)"><path
         d="m 85.787863,39.673613 c -0.21508,-0.0228 -0.58283,-0.11019 -0.78741,-0.18714 -0.22542,-0.0849 -0.59093,-0.28114 -0.80063,-0.42997 -0.23981,-0.17018 -0.59474,-0.52812 -0.7726,-0.77914 -0.18232,-0.25732 -0.38558,-0.67428 -0.47126,-0.96675 -0.14641,-0.49971 -0.13763,0.0424 -0.13031,-8.05378 l 0.006,-7.34455 0.0472,-0.20122 c 0.24474,-1.04365 0.87188,-1.85486 1.79219,-2.31822 0.24517,-0.12343 0.53536,-0.22361 0.84387,-0.29131 l 0.22237,-0.0489 4.03091,-0.007 c 3.577814,-0.006 4.032394,-0.0109 4.043934,-0.0412 0.0194,-0.0506 5.658328,-5.0717 5.890588,-5.24526 0.10983,-0.0821 0.28237,-0.19705 0.383425,-0.25551 0.1011,-0.0584 0.18786,-0.10946 0.19293,-0.11334 0.005,-0.004 -0.0166,-0.0549 -0.0481,-0.11335 -0.282265,-0.52324 -0.343375,-1.29478 -0.14887,-1.87928 0.0259,-0.0778 0.0418,-0.14675 0.0354,-0.15319 -0.006,-0.006 -0.0914,-0.0393 -0.188705,-0.073 -0.32463,-0.11238 -0.65015,-0.35796 -0.83148,-0.6272 -0.15668,-0.23265 -1.664468,-2.8491094 -1.717468,-2.9803294 -0.15515,-0.38411 -0.15436,-0.83541 0.002,-1.22284 0.0918,-0.22711 0.19624,-0.382422 0.38389,-0.570502 0.2028,-0.20326 0.388868,-0.32064 0.648378,-0.40903 l 0.17886,-0.0609 3.353675,-0.006 c 3.74446,-0.007 3.51217,-0.016 3.8679,0.15005 0.32765,0.15294 0.61962,0.43821 0.78537,0.767342 0.22187,0.44058 0.22696,1.01181 0.0129,1.44781 -0.0332,0.0678 -0.39126,0.73892 -0.79559,1.4915595 -0.53151,0.9893899 -0.76876,1.4091799 -0.85654,1.5155999 -0.21559,0.26139 -0.54763,0.46697 -0.88466,0.54778 -0.17401,0.0417 -0.26782,0.0441 -1.68921,0.0444 l -1.50497,1.6e-4 -0.064,0.14102 c -0.11953,0.26358 -0.14494,0.39814 -0.14446,0.76447 4e-4,0.31974 0.004,0.34528 0.0735,0.54828 0.0861,0.25092 0.16284,0.39364 0.20636,0.38343 0.0172,-0.004 0.14273,-0.036 0.27906,-0.0712 0.37026,-0.0954 0.69713,-0.13392 1.13435,-0.13346 0.65154,7e-4 1.12652,0.0948 1.72435,0.34147 l 0.22157,0.0914 0.0634,-0.076 c 0.0795,-0.0953 0.2246,-0.37545 0.27546,-0.53204 0.1034,-0.3183 0.42046,-0.42706 0.63106,-0.21647 0.0612,0.0612 0.0737,0.0906 0.0737,0.17287 0,0.1873 -0.1557,0.57216 -0.34677,0.85709 -0.0932,0.13892 -0.0978,0.15252 -0.0615,0.17816 0.0217,0.0153 0.0978,0.0733 0.16938,0.12893 0.15414,0.1199 5.51021,5.04048 5.59055,5.13596 l 0.0553,0.0656 4.95969,0.007 4.95969,0.007 0.21412,0.0492 c 0.67688,0.15577 1.20853,0.43792 1.67197,0.88733 0.60084,0.58266 0.93551,1.27846 1.00969,2.09928 0.0174,0.19277 0.0223,2.36237 0.0166,7.47089 -0.008,8.06689 0.008,7.29776 -0.17267,7.83891 -0.1651,0.49439 -0.40658,0.89034 -0.77658,1.27331 -0.55974,0.57937 -1.26682,0.92381 -2.06051,1.00372 -0.28127,0.0284 -34.529897,0.0274 -34.797907,-9.8e-4 z m 34.858007,-1.68095 c 0.34548,-0.0952 0.6933,-0.31291 0.90084,-0.56406 0.14515,-0.17566 0.29634,-0.47899 0.34754,-0.69728 0.0393,-0.16742 0.041,-0.47309 0.041,-7.37388 0,-8.12116 0.0187,-7.31111 -0.17831,-7.71344 -0.21857,-0.44629 -0.58544,-0.7491 -1.07727,-0.88911 l -0.17532,-0.0499 -17.18196,-0.006 c -12.407057,-0.005 -17.234717,5.2e-4 -17.371707,0.0183 -0.67531,0.0876 -1.22929,0.5695 -1.42552,1.24004 -0.037,0.12649 -0.0396,0.54417 -0.0461,7.31101 -0.005,5.33293 -1.5e-4,7.21994 0.019,7.34454 0.11153,0.72605 0.69655,1.29917 1.43454,1.40528 0.083,0.0121 7.19087,0.0189 17.356167,0.017 16.29587,-0.002 17.22307,-0.005 17.35707,-0.0422 z M 109.068,18.942083 c -0.0552,-0.0536 -1.04102,-0.96109 -2.19078,-2.01659 -1.14975,-1.05551 -2.1659,-1.98842 -2.25813,-2.07313 -0.0922,-0.0847 -0.26233,-0.21742 -0.37801,-0.29493 l -0.21032,-0.14091 -0.14153,0.0635 c -0.37455,0.16805 -0.75268,0.24605 -1.1929,0.24605 -0.57076,0 -1.04196,-0.13404 -1.53557,-0.4368 l -0.0935,-0.0573 -0.24189,0.12396 c -0.13303,0.0681 -0.31734,0.17755 -0.40957,0.24306 -0.15597,0.1108 -4.965643,4.37923 -4.982083,4.42147 -0.004,0.0109 3.060508,0.0191 6.863563,0.0191 h 6.87101 z m -6.09385,-4.88564 c 0.0194,-0.0314 -0.30146,-0.0697 -0.58431,-0.0697 -0.14296,0 -0.25317,0.007 -0.24492,0.015 0.0549,0.0549 0.79874,0.10401 0.82923,0.0548 z"
         style="display:inline;fill:#1a4a88;stroke-width:1.21225"
         id="path1-9"
         sodipodi:nodetypes="ccsssccsssccsssccccssscsscssscssssccscsssscscsscscccccsssccsccccssscsccscccccccsssscssscsscscscscc" /><g
         id="g3"
         transform="matrix(1.2122501,0,0,1.2122501,-16.958884,-81.81517)"><path
           d="m 96.214221,97.704893 c -0.10772,-0.0503 -0.22154,-0.17367 -0.24793,-0.26869 -0.0116,-0.0418 -0.0183,-0.91931 -0.0184,-2.410555 l -1e-4,-2.344795 0.0515,-0.0986 c 0.0648,-0.12394 0.17498,-0.20995 0.30314,-0.23655 0.0683,-0.0142 0.83343,-0.0187 2.56862,-0.0152 l 2.471379,0.005 0.0969,0.0537 c 0.10551,0.0585 0.18198,0.1454 0.219,0.24896 0.0307,0.0858 0.0365,4.67299 0.006,4.78261 -0.0271,0.0976 -0.12542,0.21865 -0.22134,0.2725 l -0.0821,0.0461 -2.526709,0.005 -2.52673,0.005 z m 9.490059,0.0245 c -0.95193,-0.11656 -1.78357,-0.6168 -2.2931,-1.3793 -0.19978,-0.29898 -0.33821,-0.63398 -0.42049,-1.017605 -0.06,-0.27989 -0.0601,-0.80793 -7e-5,-1.08815 0.30309,-1.415705 1.57615,-2.414715 3.07865,-2.415915 0.52907,-4.2e-4 0.98353,0.10791 1.47012,0.35043 0.33069,0.16482 0.55701,0.32695 0.81118,0.58112 0.24574,0.245741 0.41479,0.479031 0.56111,0.774305 0.18866,0.38071 0.27343,0.71075 0.29133,1.13426 0.048,1.136445 -0.57631,2.173725 -1.63596,2.717945 -0.32944,0.1692 -0.589,0.2555 -0.95905,0.31886 -0.19287,0.033 -0.71656,0.047 -0.90372,0.024 z m -18.029689,-0.0255 c -0.0844,-0.0368 -0.18948,-0.13594 -0.23177,-0.21882 -0.05,-0.0981 -0.063,-0.24289 -0.0303,-0.33683 0.0143,-0.041 0.78365,-1.15151 1.70964,-2.467725 1.2438,-1.767945 1.70121,-2.404685 1.75095,-2.437385 0.0851,-0.0559 0.22163,-0.0867 0.31689,-0.0715 0.0405,0.007 0.11636,0.0377 0.16861,0.0693 0.0888,0.0538 0.20469,0.21351 1.77939,2.452545 1.1556,1.643115 1.69086,2.418975 1.705,2.471395 0.0414,0.15339 -0.0119,0.33198 -0.13391,0.44894 -0.13092,0.1255 0.15539,0.11628 -3.58823,0.11548 -2.79149,-5.9e-4 -3.39955,-0.005 -3.4463,-0.0254 z m 1.32001,-6.20631 c -0.1398,-0.0429 -0.27131,-0.16345 -0.3158,-0.28942 -0.0209,-0.0592 -0.0253,-0.47573 -0.0253,-2.404637 0,-2.655417 -0.0135,-2.434653 0.15879,-2.589593 0.0678,-0.06091 0.1166,-0.08772 0.18771,-0.103015 0.0691,-0.01485 0.7945,-0.01908 2.57675,-0.015 l 2.48061,0.0057 0.0738,0.03988 c 0.087,0.04701 0.17593,0.137438 0.22386,0.227545 0.033,0.06198 0.0343,0.158074 0.0343,2.416064 0,1.944526 -0.004,2.363896 -0.0253,2.423086 -0.0322,0.0912 -0.13522,0.20551 -0.23167,0.25713 l -0.075,0.0402 -2.50828,0.003 c -1.37955,0.002 -2.52908,-0.003 -2.5545,-0.011 z m 9.46705,-0.001 c -1.25808,-0.13275 -2.30869,-0.94849 -2.6783,-2.079531 -0.10047,-0.307436 -0.12099,-0.454979 -0.12121,-0.871486 -1.7e-4,-0.328921 0.005,-0.402982 0.0427,-0.569536 0.24705,-1.103387 1.11544,-1.986229 2.24151,-2.278806 0.44132,-0.114667 1.0262,-0.133784 1.45961,-0.04771 0.839829,0.166792 1.570039,0.642655 2.022899,1.318284 0.53024,0.79109 0.63463,1.766 0.28249,2.638253 -0.29759,0.737162 -0.93567,1.362792 -1.70316,1.669952 -0.213387,0.0854 -0.528019,0.16983 -0.750109,0.2013 -0.20194,0.0286 -0.61356,0.0386 -0.7964,0.0193 z m 4.706689,-0.20059 c -0.0881,-0.0403 -0.17956,-0.13031 -0.22507,-0.22172 -0.0445,-0.0894 -0.0447,-0.2836 -3.1e-4,-0.37085 0.0459,-0.0903 3.30315,-4.716574 3.37487,-4.793351 0.15676,-0.167799 0.45537,-0.176539 0.62248,-0.01822 0.0735,0.06959 3.37933,4.776581 3.40523,4.848461 0.073,0.20248 -0.0332,0.4512 -0.23696,0.55515 -0.0667,0.034 -0.1646,0.035 -3.46757,0.0346 -3.25192,-3.9e-4 -3.40209,-0.002 -3.47267,-0.0341 z"
           style="display:inline;fill:#4a88c4"
           id="path1" /></g></g></g><g
     inkscape:groupmode="layer"
     id="layer3"
     inkscape:label="Layer 3"><text
       xml:space="preserve"
       transform="matrix(0.26458333,0,0,0.26458333,-94.6428,12.28966)"
       id="text9"
       style="font-size:18.6667px;font-family:Arial;-inkscape-font-specification:Arial;text-align:start;writing-mode:lr-tb;direction:ltr;white-space:pre;shape-inside:url(#rect10);display:inline;fill:none;stroke:#000000;stroke-width:2.66835;stroke-dasharray:none;stroke-opacity:1"
       x="162.20865"
       y="0"
       inkscape:label="accessible-txt"><tspan
         x="377.37695"
         y="210.00747"
         id="tspan4"><tspan
           style="fill:#000000;stroke:none"
           id="tspan3">Metadata remains </tspan></tspan><tspan
         x="377.37695"
         y="233.34085"
         id="tspan6"><tspan
           style="fill:#000000;stroke:none"
           id="tspan5">accessible by all schema-</tspan></tspan><tspan
         x="377.37695"
         y="256.67422"
         id="tspan8"><tspan
           style="fill:#000000;stroke:none"
           id="tspan7">aware tools; unknown </tspan></tspan><tspan
         x="377.37695"
         y="280.00759"
         id="tspan10"><tspan
           style="fill:#000000;stroke:none"
           id="tspan9">terms are not lost.</tspan></tspan></text><text
       xml:space="preserve"
       transform="matrix(0.26458333,0,0,0.26458333,-94.616273,-28.156326)"
       id="text9-9"
       style="font-size:18.6667px;font-family:Arial;-inkscape-font-specification:Arial;text-align:start;writing-mode:lr-tb;direction:ltr;white-space:pre;shape-inside:url(#rect10-6);shape-padding:0;display:inline;fill:none;stroke:#000000;stroke-width:2.66835;stroke-dasharray:none;stroke-opacity:1"
       x="-230.3528"
       y="0"
       inkscape:label="composable-txt"><tspan
         x="377.37695"
         y="210.00747"
         id="tspan14"><tspan
           style="fill:#000000;stroke:none"
           id="tspan11">With a composable framework, </tspan></tspan><tspan
         x="377.37695"
         y="233.34085"
         id="tspan16"><tspan
           style="fill:#000000;stroke:none"
           id="tspan15">metadata need not be translated.
</tspan></tspan><tspan
         x="377.37695"
         y="256.67422"
         id="tspan19"><tspan
           style="fill:#000000;stroke:none"
           id="tspan18">It can be produced in a common </tspan></tspan><tspan
         x="377.37695"
         y="280.00759"
         id="tspan21"><tspan
           style="fill:#000000;stroke:none"
           id="tspan20">container by users and instruments.</tspan></tspan></text><g
       id="g2"
       inkscape:label="schemas"
       transform="translate(6.1478767,-87.572646)"><g
         id="g17"
         transform="translate(67.399798,19.199163)"><path
           d="m 4.3947593,173.92526 c -0.0844,-0.0368 -0.18948,-0.13594 -0.23177,-0.21882 -0.05,-0.0981 -0.063,-0.24289 -0.0303,-0.33683 0.0143,-0.041 0.78365,-1.15151 1.70964,-2.46772 1.2438,-1.76795 1.70121,-2.40469 1.75095,-2.43739 0.0851,-0.0559 0.22163,-0.0867 0.31689,-0.0715 0.0405,0.007 0.11636,0.0377 0.16861,0.0693 0.0888,0.0538 0.20469,0.21351 1.77939,2.45254 1.1555987,1.64312 1.6908587,2.41898 1.7049987,2.4714 0.0414,0.15339 -0.0119,0.33198 -0.13391,0.44894 -0.13092,0.1255 0.15539,0.11628 -3.5882287,0.11548 -2.79149,-5.9e-4 -3.39955,-0.005 -3.4463,-0.0254 z"
           style="display:inline;fill:#4a88c4"
           id="path1-7" /><text
           xml:space="preserve"
           transform="matrix(0.26458333,0,0,0.26458333,-85.379172,113.1034)"
           id="text9-2"
           style="font-size:16px;font-family:Arial;-inkscape-font-specification:Arial;text-align:justify;writing-mode:lr-tb;direction:ltr;white-space:pre;shape-inside:url(#rect10-7);display:inline;fill:none;stroke:#000000;stroke-width:2.66835;stroke-dasharray:none;stroke-opacity:1"
           x="162.20866"
           y="0"><tspan
             x="377.37695"
             y="207.60543"
             id="tspan24"><tspan
               dx="0 0 0 0 0 0 0 0.48967743"
               style="font-weight:bold;fill:#000000;stroke:none"
               id="tspan22">Custom schemas</tspan><tspan
               dx="0 0.4896698 0 0 0 0 0 0 0 0.4896698 0 0 0 0 0 0.48968506 0 0 0 0 0.4896698 0 0 0 0 0.4896698 0 0 0 0.48968506"
               style="fill:#000000;stroke:none"
               id="tspan23"> capture terms that have not yet </tspan></tspan><tspan
             x="377.37695"
             y="227.60543"
             id="tspan26"><tspan
               dx="0 0 0 0 0 4.0856934 0 0 0 0 0 0 4.0856934 0 0 0 4.0856934 0 0 4.0856934 0 0 0 4.0856934 0 0 0 0 0 0 0 4.0856934 0 0 0 0 4.0856934 0 0 0 4.0856934"
               style="fill:#000000;stroke:none"
               id="tspan25">been agreed on. In the future, they can extend </tspan></tspan><tspan
             x="377.37695"
             y="247.60543"
             id="tspan28"><tspan
               style="fill:#000000;stroke:none"
               id="tspan27">community and core schemas. </tspan></tspan></text></g><g
         id="g18"
         transform="translate(67.699045,30.340612)"><path
           d="m 7.4745365,146.46347 c -0.95193,-0.11656 -1.78357,-0.6168 -2.2931,-1.3793 -0.19978,-0.29898 -0.33821,-0.63398 -0.42049,-1.01761 -0.06,-0.27989 -0.0601,-0.80793 -7e-5,-1.08815 0.30309,-1.4157 1.57615,-2.41471 3.07865,-2.41591 0.52907,-4.2e-4 0.9835298,0.10791 1.4701201,0.35043 0.3306897,0.16482 0.5570097,0.32695 0.8111794,0.58112 0.24574,0.24574 0.41479,0.47903 0.56111,0.7743 0.18866,0.38072 0.27343,0.71075 0.29133,1.13426 0.048,1.13645 -0.57631,2.17373 -1.6359594,2.71795 -0.32944,0.1692 -0.5890001,0.2555 -0.9590501,0.31886 -0.19287,0.033 -0.71656,0.047 -0.90372,0.024 z"
           style="display:inline;fill:#4a88c4"
           id="path1-68"
           sodipodi:nodetypes="csscssssssscc" /><text
           xml:space="preserve"
           transform="matrix(0.26458333,0,0,0.26458333,-85.459787,84.419407)"
           id="text9-2-0"
           style="font-size:16px;font-family:Arial;-inkscape-font-specification:Arial;text-align:justify;writing-mode:lr-tb;direction:ltr;white-space:pre;shape-inside:url(#rect10-7-8);display:inline;fill:none;stroke:#000000;stroke-width:2.66835;stroke-dasharray:none;stroke-opacity:1"
           x="162.20866"
           y="0"><tspan
             x="377.37695"
             y="207.60543"
             id="tspan31"><tspan
               dx="0 0 0 0 0 0 0 0 0 0 9.1566391"
               style="font-weight:bold;fill:#000000;stroke:none"
               id="tspan29">Community schemas</tspan><tspan
               dx="0 9.1566467 0 0 0 0 9.1566467 0 0 0 0 9.156662 0 0 0 0 0 9.1566315"
               style="fill:#000000;stroke:none"
               id="tspan30"> like OME, NBO-Q and </tspan></tspan><tspan
             x="377.37695"
             y="227.60543"
             id="tspan33"><tspan
               dx="0 0 0 0 0 0 0.80241013 0 0 0 0 0.80241394 0 0 0 0 0 0 0 0 0 0.80241394 0 0 0.80241394 0 0 0 0 0 0 0.80239868 0 0 0 0 0 0 0 0.80239868"
               style="fill:#000000;stroke:none"
               id="tspan32">REMBI seek consensus on terms, provide reusable </tspan></tspan><tspan
             x="377.37695"
             y="247.60543"
             id="tspan35"><tspan
               style="fill:#000000;stroke:none"
               id="tspan34">base classes, and enable open-source tools.</tspan></tspan></text></g><g
         id="g19"
         transform="translate(67.699045,33.38046)"><path
           d="m 5.2439532,126.81181 c -0.10772,-0.0503 -0.22154,-0.17367 -0.24793,-0.26869 -0.0116,-0.0418 -0.0183,-0.91931 -0.0184,-2.41056 l -10e-5,-2.34479 0.0515,-0.0986 c 0.0648,-0.12394 0.17498,-0.20995 0.30314,-0.23655 0.0683,-0.0142 0.83343,-0.0187 2.56862,-0.0152 l 2.4713798,0.005 0.0969,0.0537 c 0.105509,0.0585 0.181979,0.1454 0.218999,0.24896 0.0307,0.0858 0.0365,4.67299 0.006,4.78261 -0.0271,0.0976 -0.12542,0.21865 -0.221339,0.2725 l -0.0821,0.0461 -2.5267098,0.005 -2.52673,0.005 z"
           style="display:inline;fill:#4a88c4"
           id="path1-685" /><text
           xml:space="preserve"
           transform="matrix(0.26458333,0,0,0.26458333,-102.39312,-55.241203)"
           id="text15"
           style="font-size:16px;font-family:Arial;-inkscape-font-specification:Arial;writing-mode:lr-tb;direction:ltr;white-space:pre;shape-inside:url(#rect15);display:inline;fill:#000000;fill-opacity:1;stroke:none;stroke-width:2.66835;stroke-dasharray:none;stroke-opacity:1"><tspan
             x="441.20508"
             y="672.14059"
             id="tspan37"><tspan
   style="font-weight:bold"
   id="tspan36">Core schemas</tspan> like DataCite provide the most </tspan><tspan
             x="441.20508"
             y="692.14059"
             id="tspan38">general building blocks and even more re-use.</tspan></text></g></g><text
       xml:space="preserve"
       style="font-size:4.23333px;font-family:Arial;-inkscape-font-specification:Arial;writing-mode:lr-tb;direction:ltr;display:inline;fill:#000000;fill-opacity:1;stroke:none;stroke-width:0.706001;stroke-dasharray:none;stroke-opacity:1"
       x="110.63687"
       y="180.39326"
       id="text17"><tspan
         sodipodi:role="line"
         id="tspan17"
         style="stroke-width:0.706"
         x="110.63687"
         y="180.39326" /></text></g></svg>
